<svg xmlns="http://www.w3.org/2000/svg" width="96" height="59" viewBox="0 0 96 59" fill="none"><g clip-path="url(#clip0)"><path fill-rule="evenodd" clip-rule="evenodd" d="M30.5805 54.6797C30.6805 54.5497 30.5655 54.3897 30.5805 54.1197C30.3855 54.0897 28.4105 54.0597 28.2105 54.0397C28.2405 52.3697 27.7705 50.8547 26.7605 49.6797C25.6955 48.4297 24.1405 47.7247 22.3405 47.5397C22.2555 49.3397 22.7105 50.9797 23.7905 52.2347C24.2455 52.7797 24.8155 53.2197 25.4405 53.5597C24.1855 53.1747 22.9705 52.6997 21.8005 52.1397C22.3105 50.4747 22.2655 48.8297 21.5805 47.3897C20.8605 45.9047 19.5455 44.8297 17.8505 44.1897C17.2905 45.9097 17.3205 47.6097 18.0405 49.0947C18.3355 49.6997 18.7305 50.2397 19.1955 50.7047C18.0605 49.9847 16.9605 49.1797 15.9205 48.2897C16.9105 46.7897 17.3555 45.1497 17.0755 43.5347C16.7805 41.9097 15.8155 40.5147 14.3505 39.4447C13.3555 40.9497 12.9155 42.5897 13.2105 44.2147C13.3855 45.2147 13.8255 46.1297 14.4705 46.9347C13.3555 45.8147 12.3455 44.5897 11.4405 43.2697C11.6005 43.1047 11.5855 43.1197 11.8955 42.7897C12.9655 41.6697 13.6205 40.3497 13.7355 38.9047C13.8555 37.2597 13.2555 35.6697 12.1105 34.2697C10.7805 35.4797 9.95047 36.9647 9.81547 38.6047C9.74047 39.6597 9.96047 40.6947 10.4305 41.6747C10.1955 41.2647 9.96047 40.8447 9.74047 40.4197C9.61047 40.0897 9.46547 39.7747 9.29047 39.4747C8.90547 38.6697 8.57047 37.8397 8.29047 36.9847C8.39547 36.9497 8.51047 36.9097 8.61547 36.8647C10.1505 36.2397 11.1755 34.9197 11.7305 33.4747C12.3155 31.9347 12.1855 30.2397 11.5005 28.5747C9.87547 29.3547 8.64547 30.5397 8.06047 32.0797C7.64047 33.1997 7.59547 34.3997 7.85547 35.6097C7.37547 33.8947 7.04047 32.1197 6.93547 30.3397C8.67547 30.0747 10.1555 29.3197 11.1605 28.0547C12.2005 26.7647 12.5805 25.1097 12.4305 23.3147C10.6455 23.5647 9.11047 24.3247 8.08547 25.6147C7.40047 26.4747 7.00547 27.4947 6.86047 28.6097C6.84547 27.5697 7.27047 23.8797 7.25547 23.9397C9.05547 24.0797 10.7055 23.6647 11.9905 22.6247C13.2655 21.5847 14.0105 20.0547 14.2305 18.2647C12.4405 18.1247 10.6755 18.6297 9.50547 19.5797C8.33547 20.5297 7.85047 21.3047 7.51547 22.7047C7.85047 21.1547 8.22047 19.9697 8.82047 18.5147C10.6205 18.6547 12.2555 18.2397 13.5305 17.1997C14.8155 16.1597 15.5655 14.6297 15.7855 12.8397C14.0305 12.7047 12.4055 13.0997 11.1305 14.0997C11.6555 13.2947 12.2305 12.5147 12.8405 11.7697C13.2955 11.9997 13.7655 12.1947 14.2605 12.3147C15.4905 12.6147 16.7305 12.5097 17.8705 12.0797C19.4105 11.4997 20.5955 10.2797 21.3805 8.65473C19.7155 7.95473 18.0155 7.82473 16.4805 8.40473C16.2205 8.50473 15.9555 8.61973 15.7205 8.75473C16.4505 8.10974 17.2105 7.50474 18.0155 6.94474C19.7705 7.20974 21.4355 6.92474 22.7855 5.99474C24.1455 5.05974 24.9905 3.58974 25.3755 1.82474C23.5905 1.54474 21.9105 1.82974 20.5455 2.76474C19.2905 3.63474 18.4705 4.96474 18.0605 6.56474C17.7355 6.77974 17.4305 7.00474 17.1255 7.23474C17.6405 6.58974 18.0055 5.86474 18.2055 5.07474C18.6205 3.47474 18.3105 1.80474 17.4155 0.229736C15.8955 1.18974 14.8105 2.50474 14.4055 4.09974C14.0055 5.67974 14.2955 7.32974 15.1605 8.88474C14.5605 9.43474 13.9905 10.0147 13.4505 10.6147C13.7855 9.93474 13.9905 9.20973 14.0355 8.45473C14.1705 6.80973 13.5505 5.21974 12.4105 3.82974C11.0805 5.04474 10.2455 6.52974 10.1305 8.17474C10.0105 9.79474 10.6005 11.3697 11.7255 12.7447C11.2255 13.4147 10.7755 14.1047 10.3505 14.8147C10.6005 13.9197 10.6255 13.0097 10.4505 12.1147C10.1155 10.4997 9.10547 9.13474 7.61047 8.10473C6.66047 9.63474 6.26547 11.2897 6.60047 12.9047C6.91047 14.4447 7.86047 15.7547 9.22047 16.7647C8.91047 17.6047 8.54547 18.4147 8.22547 19.2547C8.39047 18.1347 8.25547 17.0397 7.81547 16.0297C7.15547 14.5197 5.89047 13.3947 4.22047 12.6947C3.60547 14.3897 3.56547 16.0897 4.22047 17.6047C4.86547 19.0797 6.09547 20.1847 7.70047 20.8897C7.45547 21.6947 7.25047 22.5147 7.09047 23.3497C7.00047 22.7047 6.79547 22.0847 6.50047 21.5047C5.74047 20.0447 4.38047 19.0097 2.66547 18.4247C2.18047 20.1597 2.25547 21.8597 3.01547 23.3197C3.75047 24.7347 5.03547 25.7497 6.67547 26.3447C6.61547 27.0447 6.57047 27.7547 6.57047 28.4647C6.30547 27.6447 5.88547 26.9097 5.29547 26.2847C4.17047 25.0797 2.59047 24.4497 0.790469 24.3447C0.775469 26.1497 1.30047 27.7647 2.42547 28.9697C3.50047 30.1147 4.98547 30.7447 6.68547 30.8897C6.77547 31.9047 6.92047 32.9247 7.14047 33.9447C6.70047 33.0497 6.07047 32.2897 5.28047 31.7147C3.93547 30.7547 2.26547 30.4397 0.480469 30.6847C0.815469 32.4597 1.65047 33.9397 2.98547 34.9047C4.28547 35.8397 5.91047 36.1647 7.63547 35.9547C7.65047 35.9847 7.65047 36.0147 7.66547 36.0447C7.88547 36.8347 8.16047 37.6047 8.45547 38.3597C8.04047 37.9097 7.56547 37.5247 7.03547 37.2197C5.60547 36.4097 3.90547 36.2797 2.15047 36.7147C2.68047 38.4397 3.65547 39.8247 5.10547 40.6347C6.48047 41.4097 8.09047 41.5647 9.77547 41.1897C10.1405 41.8897 10.5505 42.5747 10.9855 43.2347C10.4455 42.7947 9.84547 42.4547 9.18547 42.2297C7.62047 41.6997 5.92547 41.8897 4.28047 42.6447C5.13047 44.2397 6.36047 45.4197 7.91047 45.9447C9.44547 46.4647 11.0955 46.2947 12.7055 45.5697C13.1755 46.1297 13.6555 46.6647 14.1655 47.1847C13.5955 46.9047 12.9955 46.7147 12.3655 46.6297C10.7305 46.4097 9.10547 46.9147 7.64047 47.9697C8.76547 49.3797 10.1955 50.2997 11.8355 50.5197C13.4155 50.7347 14.9955 50.2647 16.4305 49.2697C17.1905 49.8847 17.9805 50.4547 18.8005 50.9797C18.0555 50.7497 17.3055 50.6597 16.5305 50.7247C14.8905 50.8697 13.4155 51.7197 12.2305 53.0697C13.6355 54.1947 15.2305 54.7797 16.8805 54.6347C18.4955 54.4947 19.9555 53.6597 21.1405 52.3347C21.9305 52.7397 22.7355 53.0997 23.5705 53.4247C22.7955 53.3897 22.0505 53.4947 21.3205 53.7547C19.7655 54.3147 18.5705 55.5147 17.7505 57.1247C19.4005 57.8497 21.0955 58.0047 22.6505 57.4497C24.0555 56.9447 25.1805 55.9097 25.9855 54.5147C26.8905 54.4947 29.7155 54.5397 30.5805 54.6797Z" fill="#CFD9E8"></path><path fill-rule="evenodd" clip-rule="evenodd" d="M69.9897 54.505C70.7947 55.895 71.9197 56.93 73.3247 57.44C74.8747 58 76.5747 57.845 78.2247 57.115C77.4047 55.505 76.2047 54.305 74.6547 53.745C73.9247 53.485 73.1797 53.38 72.4047 53.415C73.2347 53.09 74.0397 52.73 74.8347 52.325C76.0197 53.65 77.4797 54.48 79.0947 54.625C80.7446 54.77 82.3396 54.185 83.7446 53.06C82.5596 51.71 81.0846 50.855 79.4447 50.715C78.6697 50.65 77.9197 50.74 77.1747 50.97C77.9947 50.445 78.7847 49.87 79.5447 49.26C80.9796 50.255 82.5596 50.73 84.1396 50.51C85.7796 50.29 87.2096 49.365 88.3346 47.96C86.8696 46.905 85.2496 46.4 83.6096 46.62C82.9796 46.705 82.3796 46.895 81.8096 47.175C82.3196 46.66 82.7996 46.12 83.2696 45.56C84.8796 46.28 86.5296 46.45 88.0646 45.935C89.6146 45.405 90.8446 44.23 91.6946 42.635C90.0496 41.88 88.3596 41.69 86.7896 42.22C86.1296 42.445 85.5346 42.785 84.9896 43.225C85.4296 42.565 85.8396 41.885 86.1996 41.18C87.8846 41.555 89.4946 41.405 90.8696 40.625C92.3146 39.815 93.2946 38.43 93.8246 36.705C92.0696 36.265 90.3696 36.4 88.9396 37.21C88.4096 37.515 87.9346 37.895 87.5196 38.35C87.8146 37.6 88.0896 36.825 88.3096 36.035C88.3246 36.005 88.3246 35.975 88.3396 35.945C90.0646 36.155 91.6896 35.83 92.9896 34.895C94.3196 33.935 95.1546 32.45 95.4946 30.675C93.7096 30.43 92.0396 30.745 90.6946 31.705C89.9046 32.28 89.2746 33.04 88.8346 33.935C89.0546 32.915 89.1996 31.895 89.2896 30.88C90.9846 30.735 92.4746 30.105 93.5496 28.96C94.6746 27.755 95.1996 26.14 95.1846 24.335C93.3846 24.44 91.8046 25.07 90.6796 26.275C90.0896 26.9 89.6696 27.64 89.4046 28.455C89.4046 27.745 89.3596 27.04 89.2996 26.335C90.9446 25.74 92.2246 24.725 92.9596 23.31C93.7196 21.85 93.7946 20.15 93.3096 18.415C91.5996 19 90.2346 20.035 89.4746 21.495C89.1796 22.075 88.9746 22.695 88.8846 23.34C88.7246 22.51 88.5196 21.69 88.2746 20.88C89.8846 20.175 91.1096 19.07 91.7546 17.595C92.4096 16.085 92.3696 14.385 91.7546 12.685C90.0846 13.385 88.8146 14.51 88.1596 16.02C87.7196 17.03 87.5846 18.125 87.7446 19.245C87.4246 18.405 87.0596 17.595 86.7496 16.755C88.1096 15.74 89.0596 14.43 89.3696 12.895C89.7046 11.28 89.3096 9.62497 88.3596 8.09497C86.8646 9.12497 85.8546 10.49 85.5196 12.105C85.3446 13 85.3696 13.91 85.6196 14.805C85.1996 14.095 84.7446 13.405 84.2446 12.735C85.3696 11.355 85.9596 9.77997 85.8396 8.16497C85.7246 6.51497 84.8896 5.03497 83.5596 3.81997C82.4196 5.20997 81.7996 6.79997 81.9346 8.44497C81.9746 9.19997 82.1846 9.92497 82.5196 10.605C81.9796 10.005 81.4096 9.42497 80.8096 8.87497C81.6746 7.31497 81.9646 5.66497 81.5646 4.08997C81.1597 2.49497 80.0746 1.17997 78.5547 0.219971C77.6597 1.79497 77.3547 3.46497 77.7647 5.06497C77.9697 5.85497 78.3347 6.57997 78.8447 7.22497C78.5397 6.99497 78.2347 6.77497 77.9097 6.55497C77.4997 4.95497 76.6797 3.62997 75.4247 2.75497C74.0647 1.81997 72.3797 1.53497 70.5947 1.81497C70.9747 3.57997 71.8247 5.04997 73.1847 5.98497C74.5297 6.91497 76.1947 7.19997 77.9547 6.93497C78.7597 7.49997 79.5197 8.10497 80.2497 8.74497C80.0147 8.60997 79.7547 8.48997 79.4897 8.39497C77.9547 7.81497 76.2547 7.94497 74.5897 8.64497C75.3797 10.27 76.5647 11.485 78.0997 12.07C79.2447 12.5 80.4796 12.605 81.7096 12.305C82.2046 12.18 82.6746 11.99 83.1296 11.76C83.7446 12.505 84.3146 13.285 84.8396 14.09C83.5646 13.09 81.9446 12.695 80.1846 12.83C80.4046 14.62 81.1547 16.15 82.4396 17.19C83.7146 18.23 85.3496 18.64 87.1496 18.505C87.7496 19.96 88.1196 21.145 88.4546 22.695C88.1196 21.295 87.6346 20.52 86.4646 19.57C85.2946 18.62 83.5246 18.115 81.7396 18.255C81.9596 20.045 82.7046 21.575 83.9796 22.615C85.2646 23.655 86.9146 24.07 88.7146 23.93C88.6996 23.865 89.1296 27.56 89.1096 28.6C88.9646 27.485 88.5696 26.465 87.8846 25.605C86.8596 24.315 85.3246 23.555 83.5396 23.305C83.3896 25.1 83.7746 26.755 84.8096 28.045C85.8196 29.31 87.2996 30.065 89.0346 30.33C88.9296 32.11 88.5946 33.885 88.1146 35.6C88.3746 34.39 88.3346 33.19 87.9096 32.07C87.3196 30.53 86.0946 29.345 84.4696 28.565C83.7846 30.23 83.6546 31.925 84.2396 33.465C84.7946 34.91 85.8196 36.225 87.3546 36.855C87.4596 36.9 87.5696 36.94 87.6796 36.975C87.3996 37.83 87.0646 38.66 86.6796 39.465C86.5046 39.76 86.3596 40.075 86.2296 40.41C86.0096 40.835 85.7746 41.255 85.5396 41.665C86.0096 40.69 86.2296 39.655 86.1546 38.595C86.0196 36.95 85.1896 35.47 83.8596 34.26C82.7146 35.66 82.1196 37.25 82.2346 38.895C82.3496 40.34 83.0096 41.66 84.0746 42.78C84.3846 43.11 84.3646 43.1 84.5296 43.26C83.6246 44.58 82.6146 45.805 81.4996 46.925C82.1446 46.12 82.5846 45.205 82.7596 44.205C83.0546 42.58 82.6146 40.94 81.6196 39.435C80.1597 40.51 79.1947 41.9 78.8947 43.525C78.6197 45.145 79.0597 46.78 80.0497 48.28C79.0097 49.17 77.9147 49.98 76.7747 50.695C77.2397 50.23 77.6347 49.69 77.9297 49.085C78.6447 47.6 78.6747 45.9 78.1197 44.18C76.4247 44.82 75.1047 45.895 74.3897 47.38C73.7047 48.82 73.6597 50.465 74.1697 52.13C72.9997 52.69 71.7847 53.165 70.5297 53.55C71.1597 53.21 71.7247 52.77 72.1797 52.225C73.2597 50.97 73.7147 49.335 73.6297 47.53C71.8297 47.715 70.2747 48.415 69.2097 49.67C68.1997 50.845 67.7297 52.36 67.7597 54.03C67.5597 54.055 65.5847 54.08 65.3897 54.11C65.4047 54.38 65.2897 54.54 65.3897 54.67C66.2847 54.54 69.1097 54.495 69.9897 54.505Z" fill="#CFD9E8"></path><path d="M36.7291 21.176C37.3477 21.3787 37.8384 21.72 38.2011 22.2C38.5637 22.6693 38.7451 23.256 38.7451 23.96C38.7451 24.9307 38.3717 25.6827 37.6251 26.216C36.8784 26.7387 35.7904 27 34.3611 27H28.7931V15.8H34.0411C35.3637 15.8 36.3824 16.0613 37.0971 16.584C37.8117 17.096 38.1691 17.8053 38.1691 18.712C38.1691 19.2667 38.0411 19.7573 37.7851 20.184C37.5291 20.6107 37.1771 20.9413 36.7291 21.176ZM30.8731 17.432V20.52H33.8171C34.5424 20.52 35.0971 20.392 35.4811 20.136C35.8757 19.8693 36.0731 19.4853 36.0731 18.984C36.0731 18.472 35.8757 18.088 35.4811 17.832C35.0971 17.5653 34.5424 17.432 33.8171 17.432H30.8731ZM34.2331 25.368C35.8437 25.368 36.6491 24.8293 36.6491 23.752C36.6491 22.6747 35.8437 22.136 34.2331 22.136H30.8731V25.368H34.2331ZM49.3649 25.256V27H40.9649V15.8H49.1409V17.544H43.0449V20.456H48.4529V22.168H43.0449V25.256H49.3649ZM55.1557 27.16C54.2917 27.16 53.4544 27.0373 52.6437 26.792C51.8437 26.5467 51.209 26.2213 50.7397 25.816L51.4597 24.2C51.9184 24.5627 52.4784 24.8613 53.1397 25.096C53.8117 25.32 54.4837 25.432 55.1557 25.432C55.9877 25.432 56.6064 25.2987 57.0117 25.032C57.4277 24.7653 57.6357 24.4133 57.6357 23.976C57.6357 23.656 57.5184 23.3947 57.2837 23.192C57.0597 22.9787 56.7717 22.8133 56.4197 22.696C56.0677 22.5787 55.5877 22.4453 54.9797 22.296C54.1264 22.0933 53.433 21.8907 52.8997 21.688C52.377 21.4853 51.9237 21.1707 51.5397 20.744C51.1664 20.3067 50.9797 19.72 50.9797 18.984C50.9797 18.3653 51.145 17.8053 51.4757 17.304C51.817 16.792 52.3237 16.3867 52.9957 16.088C53.6784 15.7893 54.5104 15.64 55.4917 15.64C56.1744 15.64 56.8464 15.7253 57.5077 15.896C58.169 16.0667 58.7397 16.312 59.2197 16.632L58.5637 18.248C58.073 17.96 57.561 17.7413 57.0277 17.592C56.4944 17.4427 55.977 17.368 55.4757 17.368C54.6544 17.368 54.041 17.5067 53.6357 17.784C53.241 18.0613 53.0437 18.4293 53.0437 18.888C53.0437 19.208 53.1557 19.4693 53.3797 19.672C53.6144 19.8747 53.9077 20.0347 54.2597 20.152C54.6117 20.2693 55.0917 20.4027 55.6997 20.552C56.5317 20.744 57.2144 20.9467 57.7477 21.16C58.281 21.3627 58.7344 21.6773 59.1077 22.104C59.4917 22.5307 59.6837 23.1067 59.6837 23.832C59.6837 24.4507 59.513 25.0107 59.1717 25.512C58.841 26.0133 58.3344 26.4133 57.6517 26.712C56.969 27.0107 56.137 27.16 55.1557 27.16ZM63.8619 17.56H60.1499V15.8H69.6539V17.56H65.9419V27H63.8619V17.56Z" fill="#CFD9E8"></path><path d="M28.1281 41L28.1161 34.88L25.0801 39.98H24.5281L21.4921 34.916V41H20.3401V32.6H21.3241L24.8281 38.504L28.2841 32.6H29.2681L29.2801 41H28.1281ZM37.153 38.9H32.689L31.765 41H30.529L34.333 32.6H35.521L39.337 41H38.077L37.153 38.9ZM36.733 37.94L34.921 33.824L33.109 37.94H36.733ZM43.0381 41.096C42.4061 41.096 41.7941 41 41.2021 40.808C40.6181 40.608 40.1581 40.352 39.8221 40.04L40.2661 39.104C40.5861 39.392 40.9941 39.628 41.4901 39.812C41.9941 39.988 42.5101 40.076 43.0381 40.076C43.7341 40.076 44.2541 39.96 44.5981 39.728C44.9421 39.488 45.1141 39.172 45.1141 38.78C45.1141 38.492 45.0181 38.26 44.8261 38.084C44.6421 37.9 44.4101 37.76 44.1301 37.664C43.8581 37.568 43.4701 37.46 42.9661 37.34C42.3341 37.188 41.8221 37.036 41.4301 36.884C41.0461 36.732 40.7141 36.5 40.4341 36.188C40.1621 35.868 40.0261 35.44 40.0261 34.904C40.0261 34.456 40.1421 34.052 40.3741 33.692C40.6141 33.332 40.9741 33.044 41.4541 32.828C41.9341 32.612 42.5301 32.504 43.2421 32.504C43.7381 32.504 44.2261 32.568 44.7061 32.696C45.1861 32.824 45.5981 33.008 45.9421 33.248L45.5461 34.208C45.1941 33.984 44.8181 33.816 44.4181 33.704C44.0181 33.584 43.6261 33.524 43.2421 33.524C42.5621 33.524 42.0501 33.648 41.7061 33.896C41.3701 34.144 41.2021 34.464 41.2021 34.856C41.2021 35.144 41.2981 35.38 41.4901 35.564C41.6821 35.74 41.9181 35.88 42.1981 35.984C42.4861 36.08 42.8741 36.184 43.3621 36.296C43.9941 36.448 44.5021 36.6 44.8861 36.752C45.2701 36.904 45.5981 37.136 45.8701 37.448C46.1501 37.76 46.2901 38.18 46.2901 38.708C46.2901 39.148 46.1701 39.552 45.9301 39.92C45.6901 40.28 45.3261 40.568 44.8381 40.784C44.3501 40.992 43.7501 41.096 43.0381 41.096ZM49.594 33.644H46.714V32.6H53.662V33.644H50.782V41H49.594V33.644ZM61.065 39.956V41H54.969V32.6H60.897V33.644H56.169V36.224H60.381V37.244H56.169V39.956H61.065ZM68.624 41L66.812 38.42C66.588 38.436 66.412 38.444 66.284 38.444H64.208V41H63.008V32.6H66.284C67.372 32.6 68.228 32.86 68.852 33.38C69.476 33.9 69.788 34.616 69.788 35.528C69.788 36.176 69.628 36.728 69.308 37.184C68.988 37.64 68.532 37.972 67.94 38.18L69.932 41H68.624ZM66.248 37.424C67.008 37.424 67.588 37.26 67.988 36.932C68.388 36.604 68.588 36.136 68.588 35.528C68.588 34.92 68.388 34.456 67.988 34.136C67.588 33.808 67.008 33.644 66.248 33.644H64.208V37.424H66.248ZM74.1748 41.096C73.5428 41.096 72.9308 41 72.3388 40.808C71.7548 40.608 71.2948 40.352 70.9588 40.04L71.4028 39.104C71.7228 39.392 72.1308 39.628 72.6268 39.812C73.1308 39.988 73.6468 40.076 74.1748 40.076C74.8708 40.076 75.3908 39.96 75.7348 39.728C76.0788 39.488 76.2508 39.172 76.2508 38.78C76.2508 38.492 76.1548 38.26 75.9628 38.084C75.7788 37.9 75.5468 37.76 75.2668 37.664C74.9948 37.568 74.6068 37.46 74.1028 37.34C73.4708 37.188 72.9588 37.036 72.5668 36.884C72.1828 36.732 71.8508 36.5 71.5708 36.188C71.2988 35.868 71.1628 35.44 71.1628 34.904C71.1628 34.456 71.2788 34.052 71.5108 33.692C71.7508 33.332 72.1108 33.044 72.5908 32.828C73.0708 32.612 73.6668 32.504 74.3788 32.504C74.8748 32.504 75.3628 32.568 75.8428 32.696C76.3228 32.824 76.7348 33.008 77.0788 33.248L76.6828 34.208C76.3308 33.984 75.9548 33.816 75.5548 33.704C75.1548 33.584 74.7628 33.524 74.3788 33.524C73.6988 33.524 73.1868 33.648 72.8428 33.896C72.5068 34.144 72.3388 34.464 72.3388 34.856C72.3388 35.144 72.4348 35.38 72.6268 35.564C72.8188 35.74 73.0548 35.88 73.3348 35.984C73.6228 36.08 74.0108 36.184 74.4988 36.296C75.1308 36.448 75.6388 36.6 76.0228 36.752C76.4068 36.904 76.7348 37.136 77.0068 37.448C77.2868 37.76 77.4268 38.18 77.4268 38.708C77.4268 39.148 77.3068 39.552 77.0668 39.92C76.8268 40.28 76.4628 40.568 75.9748 40.784C75.4868 40.992 74.8868 41.096 74.1748 41.096Z" fill="#CFD9E8"></path><path d="M43.8398 54.944V56H39.6077V55.16L41.7678 53.12C41.9971 52.9013 42.1518 52.7147 42.2318 52.56C42.3118 52.4 42.3518 52.2427 42.3518 52.088C42.3518 51.864 42.2744 51.6933 42.1198 51.576C41.9704 51.4533 41.7491 51.392 41.4557 51.392C41.2104 51.392 40.9891 51.44 40.7918 51.536C40.5944 51.6267 40.4291 51.7653 40.2958 51.952L39.3518 51.344C39.5704 51.0187 39.8718 50.7653 40.2558 50.584C40.6398 50.3973 41.0798 50.304 41.5758 50.304C41.9918 50.304 42.3544 50.3733 42.6638 50.512C42.9784 50.6453 43.2211 50.8373 43.3918 51.088C43.5678 51.3333 43.6558 51.624 43.6558 51.96C43.6558 52.264 43.5918 52.5493 43.4638 52.816C43.3358 53.0827 43.0878 53.3867 42.7198 53.728L41.4318 54.944H43.8398ZM46.7589 56.096C46.2949 56.096 45.8815 55.9813 45.5189 55.752C45.1562 55.5227 44.8709 55.192 44.6629 54.76C44.4602 54.3227 44.3589 53.8027 44.3589 53.2C44.3589 52.5973 44.4602 52.08 44.6629 51.648C44.8709 51.2107 45.1562 50.8773 45.5189 50.648C45.8815 50.4187 46.2949 50.304 46.7589 50.304C47.2229 50.304 47.6362 50.4187 47.9989 50.648C48.3615 50.8773 48.6442 51.2107 48.8469 51.648C49.0549 52.08 49.1589 52.5973 49.1589 53.2C49.1589 53.8027 49.0549 54.3227 48.8469 54.76C48.6442 55.192 48.3615 55.5227 47.9989 55.752C47.6362 55.9813 47.2229 56.096 46.7589 56.096ZM46.7589 55C47.1002 55 47.3669 54.8533 47.5589 54.56C47.7562 54.2667 47.8549 53.8133 47.8549 53.2C47.8549 52.5867 47.7562 52.1333 47.5589 51.84C47.3669 51.5467 47.1002 51.4 46.7589 51.4C46.4229 51.4 46.1562 51.5467 45.9589 51.84C45.7669 52.1333 45.6709 52.5867 45.6709 53.2C45.6709 53.8133 45.7669 54.2667 45.9589 54.56C46.1562 54.8533 46.4229 55 46.7589 55ZM51.9017 50.4V56H50.6057V51.44H49.4857V50.4H51.9017ZM55.5705 52.488C55.9278 52.488 56.2532 52.56 56.5465 52.704C56.8398 52.848 57.0718 53.0533 57.2425 53.32C57.4132 53.5813 57.4985 53.8853 57.4985 54.232C57.4985 54.6053 57.4052 54.9333 57.2185 55.216C57.0318 55.4987 56.7758 55.7173 56.4505 55.872C56.1305 56.0213 55.7732 56.096 55.3785 56.096C54.5945 56.096 53.9812 55.856 53.5385 55.376C53.0958 54.896 52.8745 54.2107 52.8745 53.32C52.8745 52.6853 52.9945 52.1413 53.2345 51.688C53.4745 51.2347 53.8078 50.8907 54.2345 50.656C54.6665 50.4213 55.1652 50.304 55.7305 50.304C56.0292 50.304 56.3145 50.3387 56.5865 50.408C56.8638 50.472 57.0985 50.5653 57.2905 50.688L56.8105 51.64C56.5332 51.4533 56.1838 51.36 55.7625 51.36C55.2878 51.36 54.9118 51.4987 54.6345 51.776C54.3572 52.0533 54.2078 52.456 54.1865 52.984C54.5172 52.6533 54.9785 52.488 55.5705 52.488ZM55.3065 55.128C55.5838 55.128 55.8078 55.0533 55.9785 54.904C56.1545 54.7547 56.2425 54.552 56.2425 54.296C56.2425 54.04 56.1545 53.8373 55.9785 53.688C55.8078 53.5333 55.5785 53.456 55.2905 53.456C55.0078 53.456 54.7758 53.536 54.5945 53.696C54.4132 53.8507 54.3225 54.0507 54.3225 54.296C54.3225 54.5413 54.4105 54.7413 54.5865 54.896C54.7625 55.0507 55.0025 55.128 55.3065 55.128Z" fill="#CFD9E8"></path></g><defs><clipPath id="clip0"><rect width="96" height="59" fill="white"></rect></clipPath></defs></svg>