<svg xmlns="http://www.w3.org/2000/svg" width="96" height="59" viewBox="0 0 96 59" fill="none"><g clip-path="url(#clip0)"><path fill-rule="evenodd" clip-rule="evenodd" d="M30.5805 54.6797C30.6805 54.5497 30.5655 54.3897 30.5805 54.1197C30.3855 54.0897 28.4105 54.0597 28.2105 54.0397C28.2405 52.3697 27.7705 50.8547 26.7605 49.6797C25.6955 48.4297 24.1405 47.7247 22.3405 47.5397C22.2555 49.3397 22.7105 50.9797 23.7905 52.2347C24.2455 52.7797 24.8155 53.2197 25.4405 53.5597C24.1855 53.1747 22.9705 52.6997 21.8005 52.1397C22.3105 50.4747 22.2655 48.8297 21.5805 47.3897C20.8605 45.9047 19.5455 44.8297 17.8505 44.1897C17.2905 45.9097 17.3205 47.6097 18.0405 49.0947C18.3355 49.6997 18.7305 50.2397 19.1955 50.7047C18.0605 49.9847 16.9605 49.1797 15.9205 48.2897C16.9105 46.7897 17.3555 45.1497 17.0755 43.5347C16.7805 41.9097 15.8155 40.5147 14.3505 39.4447C13.3555 40.9497 12.9155 42.5897 13.2105 44.2147C13.3855 45.2147 13.8255 46.1297 14.4705 46.9347C13.3555 45.8147 12.3455 44.5897 11.4405 43.2697C11.6005 43.1047 11.5855 43.1197 11.8955 42.7897C12.9655 41.6697 13.6205 40.3497 13.7355 38.9047C13.8555 37.2597 13.2555 35.6697 12.1105 34.2697C10.7805 35.4797 9.95047 36.9647 9.81547 38.6047C9.74047 39.6597 9.96047 40.6947 10.4305 41.6747C10.1955 41.2647 9.96047 40.8447 9.74047 40.4197C9.61047 40.0897 9.46547 39.7747 9.29047 39.4747C8.90547 38.6697 8.57047 37.8397 8.29047 36.9847C8.39547 36.9497 8.51047 36.9097 8.61547 36.8647C10.1505 36.2397 11.1755 34.9197 11.7305 33.4747C12.3155 31.9347 12.1855 30.2397 11.5005 28.5747C9.87547 29.3547 8.64547 30.5397 8.06047 32.0797C7.64047 33.1997 7.59547 34.3997 7.85547 35.6097C7.37547 33.8947 7.04047 32.1197 6.93547 30.3397C8.67547 30.0747 10.1555 29.3197 11.1605 28.0547C12.2005 26.7647 12.5805 25.1097 12.4305 23.3147C10.6455 23.5647 9.11047 24.3247 8.08547 25.6147C7.40047 26.4747 7.00547 27.4947 6.86047 28.6097C6.84547 27.5697 7.27047 23.8797 7.25547 23.9397C9.05547 24.0797 10.7055 23.6647 11.9905 22.6247C13.2655 21.5847 14.0105 20.0547 14.2305 18.2647C12.4405 18.1247 10.6755 18.6297 9.50547 19.5797C8.33547 20.5297 7.85047 21.3047 7.51547 22.7047C7.85047 21.1547 8.22047 19.9697 8.82047 18.5147C10.6205 18.6547 12.2555 18.2397 13.5305 17.1997C14.8155 16.1597 15.5655 14.6297 15.7855 12.8397C14.0305 12.7047 12.4055 13.0997 11.1305 14.0997C11.6555 13.2947 12.2305 12.5147 12.8405 11.7697C13.2955 11.9997 13.7655 12.1947 14.2605 12.3147C15.4905 12.6147 16.7305 12.5097 17.8705 12.0797C19.4105 11.4997 20.5955 10.2797 21.3805 8.65473C19.7155 7.95473 18.0155 7.82473 16.4805 8.40473C16.2205 8.50473 15.9555 8.61973 15.7205 8.75473C16.4505 8.10974 17.2105 7.50474 18.0155 6.94474C19.7705 7.20974 21.4355 6.92474 22.7855 5.99474C24.1455 5.05974 24.9905 3.58974 25.3755 1.82474C23.5905 1.54474 21.9105 1.82974 20.5455 2.76474C19.2905 3.63474 18.4705 4.96474 18.0605 6.56474C17.7355 6.77974 17.4305 7.00474 17.1255 7.23474C17.6405 6.58974 18.0055 5.86474 18.2055 5.07474C18.6205 3.47474 18.3105 1.80474 17.4155 0.229736C15.8955 1.18974 14.8105 2.50474 14.4055 4.09974C14.0055 5.67974 14.2955 7.32974 15.1605 8.88474C14.5605 9.43474 13.9905 10.0147 13.4505 10.6147C13.7855 9.93474 13.9905 9.20973 14.0355 8.45473C14.1705 6.80973 13.5505 5.21974 12.4105 3.82974C11.0805 5.04474 10.2455 6.52974 10.1305 8.17474C10.0105 9.79474 10.6005 11.3697 11.7255 12.7447C11.2255 13.4147 10.7755 14.1047 10.3505 14.8147C10.6005 13.9197 10.6255 13.0097 10.4505 12.1147C10.1155 10.4997 9.10547 9.13474 7.61047 8.10473C6.66047 9.63474 6.26547 11.2897 6.60047 12.9047C6.91047 14.4447 7.86047 15.7547 9.22047 16.7647C8.91047 17.6047 8.54547 18.4147 8.22547 19.2547C8.39047 18.1347 8.25547 17.0397 7.81547 16.0297C7.15547 14.5197 5.89047 13.3947 4.22047 12.6947C3.60547 14.3897 3.56547 16.0897 4.22047 17.6047C4.86547 19.0797 6.09547 20.1847 7.70047 20.8897C7.45547 21.6947 7.25047 22.5147 7.09047 23.3497C7.00047 22.7047 6.79547 22.0847 6.50047 21.5047C5.74047 20.0447 4.38047 19.0097 2.66547 18.4247C2.18047 20.1597 2.25547 21.8597 3.01547 23.3197C3.75047 24.7347 5.03547 25.7497 6.67547 26.3447C6.61547 27.0447 6.57047 27.7547 6.57047 28.4647C6.30547 27.6447 5.88547 26.9097 5.29547 26.2847C4.17047 25.0797 2.59047 24.4497 0.790469 24.3447C0.775469 26.1497 1.30047 27.7647 2.42547 28.9697C3.50047 30.1147 4.98547 30.7447 6.68547 30.8897C6.77547 31.9047 6.92047 32.9247 7.14047 33.9447C6.70047 33.0497 6.07047 32.2897 5.28047 31.7147C3.93547 30.7547 2.26547 30.4397 0.480469 30.6847C0.815469 32.4597 1.65047 33.9397 2.98547 34.9047C4.28547 35.8397 5.91047 36.1647 7.63547 35.9547C7.65047 35.9847 7.65047 36.0147 7.66547 36.0447C7.88547 36.8347 8.16047 37.6047 8.45547 38.3597C8.04047 37.9097 7.56547 37.5247 7.03547 37.2197C5.60547 36.4097 3.90547 36.2797 2.15047 36.7147C2.68047 38.4397 3.65547 39.8247 5.10547 40.6347C6.48047 41.4097 8.09047 41.5647 9.77547 41.1897C10.1405 41.8897 10.5505 42.5747 10.9855 43.2347C10.4455 42.7947 9.84547 42.4547 9.18547 42.2297C7.62047 41.6997 5.92547 41.8897 4.28047 42.6447C5.13047 44.2397 6.36047 45.4197 7.91047 45.9447C9.44547 46.4647 11.0955 46.2947 12.7055 45.5697C13.1755 46.1297 13.6555 46.6647 14.1655 47.1847C13.5955 46.9047 12.9955 46.7147 12.3655 46.6297C10.7305 46.4097 9.10547 46.9147 7.64047 47.9697C8.76547 49.3797 10.1955 50.2997 11.8355 50.5197C13.4155 50.7347 14.9955 50.2647 16.4305 49.2697C17.1905 49.8847 17.9805 50.4547 18.8005 50.9797C18.0555 50.7497 17.3055 50.6597 16.5305 50.7247C14.8905 50.8697 13.4155 51.7197 12.2305 53.0697C13.6355 54.1947 15.2305 54.7797 16.8805 54.6347C18.4955 54.4947 19.9555 53.6597 21.1405 52.3347C21.9305 52.7397 22.7355 53.0997 23.5705 53.4247C22.7955 53.3897 22.0505 53.4947 21.3205 53.7547C19.7655 54.3147 18.5705 55.5147 17.7505 57.1247C19.4005 57.8497 21.0955 58.0047 22.6505 57.4497C24.0555 56.9447 25.1805 55.9097 25.9855 54.5147C26.8905 54.4947 29.7155 54.5397 30.5805 54.6797Z" fill="#CFD9E8"></path><path fill-rule="evenodd" clip-rule="evenodd" d="M69.9897 54.505C70.7947 55.895 71.9197 56.93 73.3247 57.44C74.8747 58 76.5747 57.845 78.2247 57.115C77.4047 55.505 76.2047 54.305 74.6547 53.745C73.9247 53.485 73.1797 53.38 72.4047 53.415C73.2347 53.09 74.0397 52.73 74.8347 52.325C76.0197 53.65 77.4797 54.48 79.0947 54.625C80.7446 54.77 82.3396 54.185 83.7446 53.06C82.5596 51.71 81.0846 50.855 79.4447 50.715C78.6697 50.65 77.9197 50.74 77.1747 50.97C77.9947 50.445 78.7847 49.87 79.5447 49.26C80.9796 50.255 82.5596 50.73 84.1396 50.51C85.7796 50.29 87.2096 49.365 88.3346 47.96C86.8696 46.905 85.2496 46.4 83.6096 46.62C82.9796 46.705 82.3796 46.895 81.8096 47.175C82.3196 46.66 82.7996 46.12 83.2696 45.56C84.8796 46.28 86.5296 46.45 88.0646 45.935C89.6146 45.405 90.8446 44.23 91.6946 42.635C90.0496 41.88 88.3596 41.69 86.7896 42.22C86.1296 42.445 85.5346 42.785 84.9896 43.225C85.4296 42.565 85.8396 41.885 86.1996 41.18C87.8846 41.555 89.4946 41.405 90.8696 40.625C92.3146 39.815 93.2946 38.43 93.8246 36.705C92.0696 36.265 90.3696 36.4 88.9396 37.21C88.4096 37.515 87.9346 37.895 87.5196 38.35C87.8146 37.6 88.0896 36.825 88.3096 36.035C88.3246 36.005 88.3246 35.975 88.3396 35.945C90.0646 36.155 91.6896 35.83 92.9896 34.895C94.3196 33.935 95.1546 32.45 95.4946 30.675C93.7096 30.43 92.0396 30.745 90.6946 31.705C89.9046 32.28 89.2746 33.04 88.8346 33.935C89.0546 32.915 89.1996 31.895 89.2896 30.88C90.9846 30.735 92.4746 30.105 93.5496 28.96C94.6746 27.755 95.1996 26.14 95.1846 24.335C93.3846 24.44 91.8046 25.07 90.6796 26.275C90.0896 26.9 89.6696 27.64 89.4046 28.455C89.4046 27.745 89.3596 27.04 89.2996 26.335C90.9446 25.74 92.2246 24.725 92.9596 23.31C93.7196 21.85 93.7946 20.15 93.3096 18.415C91.5996 19 90.2346 20.035 89.4746 21.495C89.1796 22.075 88.9746 22.695 88.8846 23.34C88.7246 22.51 88.5196 21.69 88.2746 20.88C89.8846 20.175 91.1096 19.07 91.7546 17.595C92.4096 16.085 92.3696 14.385 91.7546 12.685C90.0846 13.385 88.8146 14.51 88.1596 16.02C87.7196 17.03 87.5846 18.125 87.7446 19.245C87.4246 18.405 87.0596 17.595 86.7496 16.755C88.1096 15.74 89.0596 14.43 89.3696 12.895C89.7046 11.28 89.3096 9.62497 88.3596 8.09497C86.8646 9.12497 85.8546 10.49 85.5196 12.105C85.3446 13 85.3696 13.91 85.6196 14.805C85.1996 14.095 84.7446 13.405 84.2446 12.735C85.3696 11.355 85.9596 9.77997 85.8396 8.16497C85.7246 6.51497 84.8896 5.03497 83.5596 3.81997C82.4196 5.20997 81.7996 6.79997 81.9346 8.44497C81.9746 9.19997 82.1846 9.92497 82.5196 10.605C81.9796 10.005 81.4096 9.42497 80.8096 8.87497C81.6746 7.31497 81.9646 5.66497 81.5646 4.08997C81.1597 2.49497 80.0746 1.17997 78.5547 0.219971C77.6597 1.79497 77.3547 3.46497 77.7647 5.06497C77.9697 5.85497 78.3347 6.57997 78.8447 7.22497C78.5397 6.99497 78.2347 6.77497 77.9097 6.55497C77.4997 4.95497 76.6797 3.62997 75.4247 2.75497C74.0647 1.81997 72.3797 1.53497 70.5947 1.81497C70.9747 3.57997 71.8247 5.04997 73.1847 5.98497C74.5297 6.91497 76.1947 7.19997 77.9547 6.93497C78.7597 7.49997 79.5197 8.10497 80.2497 8.74497C80.0147 8.60997 79.7547 8.48997 79.4897 8.39497C77.9547 7.81497 76.2547 7.94497 74.5897 8.64497C75.3797 10.27 76.5647 11.485 78.0997 12.07C79.2447 12.5 80.4796 12.605 81.7096 12.305C82.2046 12.18 82.6746 11.99 83.1296 11.76C83.7446 12.505 84.3146 13.285 84.8396 14.09C83.5646 13.09 81.9446 12.695 80.1846 12.83C80.4046 14.62 81.1547 16.15 82.4396 17.19C83.7146 18.23 85.3496 18.64 87.1496 18.505C87.7496 19.96 88.1196 21.145 88.4546 22.695C88.1196 21.295 87.6346 20.52 86.4646 19.57C85.2946 18.62 83.5246 18.115 81.7396 18.255C81.9596 20.045 82.7046 21.575 83.9796 22.615C85.2646 23.655 86.9146 24.07 88.7146 23.93C88.6996 23.865 89.1296 27.56 89.1096 28.6C88.9646 27.485 88.5696 26.465 87.8846 25.605C86.8596 24.315 85.3246 23.555 83.5396 23.305C83.3896 25.1 83.7746 26.755 84.8096 28.045C85.8196 29.31 87.2996 30.065 89.0346 30.33C88.9296 32.11 88.5946 33.885 88.1146 35.6C88.3746 34.39 88.3346 33.19 87.9096 32.07C87.3196 30.53 86.0946 29.345 84.4696 28.565C83.7846 30.23 83.6546 31.925 84.2396 33.465C84.7946 34.91 85.8196 36.225 87.3546 36.855C87.4596 36.9 87.5696 36.94 87.6796 36.975C87.3996 37.83 87.0646 38.66 86.6796 39.465C86.5046 39.76 86.3596 40.075 86.2296 40.41C86.0096 40.835 85.7746 41.255 85.5396 41.665C86.0096 40.69 86.2296 39.655 86.1546 38.595C86.0196 36.95 85.1896 35.47 83.8596 34.26C82.7146 35.66 82.1196 37.25 82.2346 38.895C82.3496 40.34 83.0096 41.66 84.0746 42.78C84.3846 43.11 84.3646 43.1 84.5296 43.26C83.6246 44.58 82.6146 45.805 81.4996 46.925C82.1446 46.12 82.5846 45.205 82.7596 44.205C83.0546 42.58 82.6146 40.94 81.6196 39.435C80.1597 40.51 79.1947 41.9 78.8947 43.525C78.6197 45.145 79.0597 46.78 80.0497 48.28C79.0097 49.17 77.9147 49.98 76.7747 50.695C77.2397 50.23 77.6347 49.69 77.9297 49.085C78.6447 47.6 78.6747 45.9 78.1197 44.18C76.4247 44.82 75.1047 45.895 74.3897 47.38C73.7047 48.82 73.6597 50.465 74.1697 52.13C72.9997 52.69 71.7847 53.165 70.5297 53.55C71.1597 53.21 71.7247 52.77 72.1797 52.225C73.2597 50.97 73.7147 49.335 73.6297 47.53C71.8297 47.715 70.2747 48.415 69.2097 49.67C68.1997 50.845 67.7297 52.36 67.7597 54.03C67.5597 54.055 65.5847 54.08 65.3897 54.11C65.4047 54.38 65.2897 54.54 65.3897 54.67C66.2847 54.54 69.1097 54.495 69.9897 54.505Z" fill="#CFD9E8"></path><path d="M21.5171 26.14C20.7611 26.14 20.0284 26.0327 19.3191 25.818C18.6191 25.6033 18.0638 25.3187 17.6531 24.964L18.2831 23.55C18.6844 23.8673 19.1744 24.1287 19.7531 24.334C20.3411 24.53 20.9291 24.628 21.5171 24.628C22.2451 24.628 22.7864 24.5113 23.1411 24.278C23.5051 24.0447 23.6871 23.7367 23.6871 23.354C23.6871 23.074 23.5844 22.8453 23.3791 22.668C23.1831 22.4813 22.9311 22.3367 22.6231 22.234C22.3151 22.1313 21.8951 22.0147 21.3631 21.884C20.6164 21.7067 20.0098 21.5293 19.5431 21.352C19.0858 21.1747 18.6891 20.8993 18.3531 20.526C18.0264 20.1433 17.8631 19.63 17.8631 18.986C17.8631 18.4447 18.0078 17.9547 18.2971 17.516C18.5958 17.068 19.0391 16.7133 19.6271 16.452C20.2244 16.1907 20.9524 16.06 21.8111 16.06C22.4084 16.06 22.9964 16.1347 23.5751 16.284C24.1538 16.4333 24.6531 16.648 25.0731 16.928L24.4991 18.342C24.0698 18.09 23.6218 17.8987 23.1551 17.768C22.6884 17.6373 22.2358 17.572 21.7971 17.572C21.0784 17.572 20.5418 17.6933 20.1871 17.936C19.8418 18.1787 19.6691 18.5007 19.6691 18.902C19.6691 19.182 19.7671 19.4107 19.9631 19.588C20.1684 19.7653 20.4251 19.9053 20.7331 20.008C21.0411 20.1107 21.4611 20.2273 21.9931 20.358C22.7211 20.526 23.3184 20.7033 23.7851 20.89C24.2518 21.0673 24.6484 21.3427 24.9751 21.716C25.3111 22.0893 25.4791 22.5933 25.4791 23.228C25.4791 23.7693 25.3298 24.2593 25.0311 24.698C24.7418 25.1367 24.2984 25.4867 23.7011 25.748C23.1038 26.0093 22.3758 26.14 21.5171 26.14ZM31.3158 16.2C32.1651 16.2 32.9024 16.34 33.5278 16.62C34.1624 16.9 34.6478 17.3013 34.9838 17.824C35.3198 18.3467 35.4878 18.9673 35.4878 19.686C35.4878 20.3953 35.3198 21.016 34.9838 21.548C34.6478 22.0707 34.1624 22.472 33.5278 22.752C32.9024 23.032 32.1651 23.172 31.3158 23.172H29.1038V26H27.2838V16.2H31.3158ZM31.2318 21.632C32.0251 21.632 32.6271 21.464 33.0378 21.128C33.4484 20.792 33.6538 20.3113 33.6538 19.686C33.6538 19.0607 33.4484 18.58 33.0378 18.244C32.6271 17.908 32.0251 17.74 31.2318 17.74H29.1038V21.632H31.2318ZM44.6553 24.474V26H37.3053V16.2H44.4593V17.726H39.1253V20.274H43.8573V21.772H39.1253V24.474H44.6553ZM51.1791 26.14C50.1898 26.14 49.2938 25.9253 48.4911 25.496C47.6978 25.0573 47.0725 24.4553 46.6151 23.69C46.1671 22.9247 45.9431 22.0613 45.9431 21.1C45.9431 20.1387 46.1718 19.2753 46.6291 18.51C47.0865 17.7447 47.7118 17.1473 48.5051 16.718C49.3078 16.2793 50.2038 16.06 51.1931 16.06C51.9958 16.06 52.7285 16.2 53.3911 16.48C54.0538 16.76 54.6138 17.166 55.0711 17.698L53.8951 18.804C53.1858 18.0387 52.3131 17.656 51.2771 17.656C50.6051 17.656 50.0031 17.8053 49.4711 18.104C48.9391 18.3933 48.5238 18.7993 48.2251 19.322C47.9265 19.8447 47.7771 20.4373 47.7771 21.1C47.7771 21.7627 47.9265 22.3553 48.2251 22.878C48.5238 23.4007 48.9391 23.8113 49.4711 24.11C50.0031 24.3993 50.6051 24.544 51.2771 24.544C52.3131 24.544 53.1858 24.1567 53.8951 23.382L55.0711 24.502C54.6138 25.034 54.0491 25.44 53.3771 25.72C52.7145 26 51.9818 26.14 51.1791 26.14ZM56.815 16.2H58.635V26H56.815V16.2ZM67.6417 23.732H62.7417L61.7757 26H59.8997L64.3097 16.2H66.1017L70.5257 26H68.6217L67.6417 23.732ZM67.0397 22.304L65.1917 18.02L63.3577 22.304H67.0397ZM71.7721 16.2H73.5921V24.46H78.7161V26H71.7721V16.2Z" fill="#CFD9E8"></path><path d="M30.696 38.9H26.232L25.308 41H24.072L27.876 32.6H29.064L32.88 41H31.62L30.696 38.9ZM30.276 37.94L28.464 33.824L26.652 37.94H30.276ZM45.5557 32.6L42.7477 41H41.4877L39.1957 34.292L36.9037 41H35.6197L32.8117 32.6H34.0477L36.3157 39.428L38.6797 32.6H39.7837L42.0997 39.464L44.4157 32.6H45.5557ZM52.1061 38.9H47.6421L46.7181 41H45.4821L49.2861 32.6H50.4741L54.2901 41H53.0301L52.1061 38.9ZM51.6861 37.94L49.8741 33.824L48.0621 37.94H51.6861ZM61.1592 41L59.3472 38.42C59.1232 38.436 58.9472 38.444 58.8192 38.444H56.7432V41H55.5432V32.6H58.8192C59.9072 32.6 60.7632 32.86 61.3872 33.38C62.0112 33.9 62.3232 34.616 62.3232 35.528C62.3232 36.176 62.1632 36.728 61.8432 37.184C61.5232 37.64 61.0672 37.972 60.4752 38.18L62.4672 41H61.1592ZM58.7832 37.424C59.5432 37.424 60.1232 37.26 60.5232 36.932C60.9232 36.604 61.1232 36.136 61.1232 35.528C61.1232 34.92 60.9232 34.456 60.5232 34.136C60.1232 33.808 59.5432 33.644 58.7832 33.644H56.7432V37.424H58.7832ZM64.262 32.6H67.802C68.69 32.6 69.478 32.776 70.166 33.128C70.854 33.48 71.386 33.976 71.762 34.616C72.146 35.248 72.338 35.976 72.338 36.8C72.338 37.624 72.146 38.356 71.762 38.996C71.386 39.628 70.854 40.12 70.166 40.472C69.478 40.824 68.69 41 67.802 41H64.262V32.6ZM67.73 39.956C68.41 39.956 69.006 39.824 69.518 39.56C70.038 39.296 70.438 38.928 70.718 38.456C70.998 37.976 71.138 37.424 71.138 36.8C71.138 36.176 70.998 35.628 70.718 35.156C70.438 34.676 70.038 34.304 69.518 34.04C69.006 33.776 68.41 33.644 67.73 33.644H65.462V39.956H67.73Z" fill="#CFD9E8"></path><path d="M43.746 54.944V56H39.514V55.16L41.674 53.12C41.9033 52.9013 42.058 52.7147 42.138 52.56C42.218 52.4 42.258 52.2427 42.258 52.088C42.258 51.864 42.1807 51.6933 42.026 51.576C41.8767 51.4533 41.6553 51.392 41.362 51.392C41.1167 51.392 40.8953 51.44 40.698 51.536C40.5007 51.6267 40.3353 51.7653 40.202 51.952L39.258 51.344C39.4767 51.0187 39.778 50.7653 40.162 50.584C40.546 50.3973 40.986 50.304 41.482 50.304C41.898 50.304 42.2607 50.3733 42.57 50.512C42.8847 50.6453 43.1273 50.8373 43.298 51.088C43.474 51.3333 43.562 51.624 43.562 51.96C43.562 52.264 43.498 52.5493 43.37 52.816C43.242 53.0827 42.994 53.3867 42.626 53.728L41.338 54.944H43.746ZM46.6651 56.096C46.2011 56.096 45.7878 55.9813 45.4251 55.752C45.0625 55.5227 44.7771 55.192 44.5691 54.76C44.3665 54.3227 44.2651 53.8027 44.2651 53.2C44.2651 52.5973 44.3665 52.08 44.5691 51.648C44.7771 51.2107 45.0625 50.8773 45.4251 50.648C45.7878 50.4187 46.2011 50.304 46.6651 50.304C47.1291 50.304 47.5425 50.4187 47.9051 50.648C48.2678 50.8773 48.5505 51.2107 48.7531 51.648C48.9611 52.08 49.0651 52.5973 49.0651 53.2C49.0651 53.8027 48.9611 54.3227 48.7531 54.76C48.5505 55.192 48.2678 55.5227 47.9051 55.752C47.5425 55.9813 47.1291 56.096 46.6651 56.096ZM46.6651 55C47.0065 55 47.2731 54.8533 47.4651 54.56C47.6625 54.2667 47.7611 53.8133 47.7611 53.2C47.7611 52.5867 47.6625 52.1333 47.4651 51.84C47.2731 51.5467 47.0065 51.4 46.6651 51.4C46.3291 51.4 46.0625 51.5467 45.8651 51.84C45.6731 52.1333 45.5771 52.5867 45.5771 53.2C45.5771 53.8133 45.6731 54.2667 45.8651 54.56C46.0625 54.8533 46.3291 55 46.6651 55ZM51.8079 50.4V56H50.5119V51.44H49.3919V50.4H51.8079ZM56.6128 53.056C56.8901 53.1947 57.1008 53.376 57.2448 53.6C57.3941 53.824 57.4688 54.0827 57.4688 54.376C57.4688 54.7227 57.3701 55.0267 57.1727 55.288C56.9754 55.544 56.6981 55.744 56.3408 55.888C55.9834 56.0267 55.5701 56.096 55.1008 56.096C54.6314 56.096 54.2181 56.0267 53.8608 55.888C53.5088 55.744 53.2341 55.544 53.0368 55.288C52.8448 55.0267 52.7488 54.7227 52.7488 54.376C52.7488 54.0827 52.8208 53.824 52.9648 53.6C53.1141 53.376 53.3248 53.1947 53.5968 53.056C53.3888 52.928 53.2288 52.768 53.1168 52.576C53.0048 52.3787 52.9488 52.1547 52.9488 51.904C52.9488 51.5787 53.0394 51.296 53.2208 51.056C53.4021 50.816 53.6554 50.632 53.9808 50.504C54.3061 50.3707 54.6794 50.304 55.1008 50.304C55.5274 50.304 55.9034 50.3707 56.2288 50.504C56.5594 50.632 56.8154 50.816 56.9968 51.056C57.1781 51.296 57.2688 51.5787 57.2688 51.904C57.2688 52.1547 57.2128 52.3787 57.1008 52.576C56.9888 52.768 56.8261 52.928 56.6128 53.056ZM55.1008 51.256C54.8394 51.256 54.6288 51.32 54.4688 51.448C54.3141 51.5707 54.2368 51.7413 54.2368 51.96C54.2368 52.1733 54.3141 52.3413 54.4688 52.464C54.6234 52.5867 54.8341 52.648 55.1008 52.648C55.3674 52.648 55.5808 52.5867 55.7408 52.464C55.9008 52.3413 55.9808 52.1733 55.9808 51.96C55.9808 51.7413 55.9008 51.5707 55.7408 51.448C55.5808 51.32 55.3674 51.256 55.1008 51.256ZM55.1008 55.144C55.4261 55.144 55.6821 55.072 55.8688 54.928C56.0608 54.7787 56.1568 54.5813 56.1568 54.336C56.1568 54.0907 56.0608 53.896 55.8688 53.752C55.6821 53.608 55.4261 53.536 55.1008 53.536C54.7808 53.536 54.5274 53.608 54.3408 53.752C54.1541 53.896 54.0608 54.0907 54.0608 54.336C54.0608 54.5867 54.1541 54.784 54.3408 54.928C54.5274 55.072 54.7808 55.144 55.1008 55.144Z" fill="#CFD9E8"></path></g><defs><clipPath id="clip0"><rect width="96" height="59" fill="white"></rect></clipPath></defs></svg>