<svg xmlns="http://www.w3.org/2000/svg" width="96" height="59" viewBox="0 0 96 59" fill="none"><g clip-path="url(#clip0)"><path fill-rule="evenodd" clip-rule="evenodd" d="M30.5805 54.6797C30.6805 54.5497 30.5655 54.3897 30.5805 54.1197C30.3855 54.0897 28.4105 54.0597 28.2105 54.0397C28.2405 52.3697 27.7705 50.8547 26.7605 49.6797C25.6955 48.4297 24.1405 47.7247 22.3405 47.5397C22.2555 49.3397 22.7105 50.9797 23.7905 52.2347C24.2455 52.7797 24.8155 53.2197 25.4405 53.5597C24.1855 53.1747 22.9705 52.6997 21.8005 52.1397C22.3105 50.4747 22.2655 48.8297 21.5805 47.3897C20.8605 45.9047 19.5455 44.8297 17.8505 44.1897C17.2905 45.9097 17.3205 47.6097 18.0405 49.0947C18.3355 49.6997 18.7305 50.2397 19.1955 50.7047C18.0605 49.9847 16.9605 49.1797 15.9205 48.2897C16.9105 46.7897 17.3555 45.1497 17.0755 43.5347C16.7805 41.9097 15.8155 40.5147 14.3505 39.4447C13.3555 40.9497 12.9155 42.5897 13.2105 44.2147C13.3855 45.2147 13.8255 46.1297 14.4705 46.9347C13.3555 45.8147 12.3455 44.5897 11.4405 43.2697C11.6005 43.1047 11.5855 43.1197 11.8955 42.7897C12.9655 41.6697 13.6205 40.3497 13.7355 38.9047C13.8555 37.2597 13.2555 35.6697 12.1105 34.2697C10.7805 35.4797 9.95047 36.9647 9.81547 38.6047C9.74047 39.6597 9.96047 40.6947 10.4305 41.6747C10.1955 41.2647 9.96047 40.8447 9.74047 40.4197C9.61047 40.0897 9.46547 39.7747 9.29047 39.4747C8.90547 38.6697 8.57047 37.8397 8.29047 36.9847C8.39547 36.9497 8.51047 36.9097 8.61547 36.8647C10.1505 36.2397 11.1755 34.9197 11.7305 33.4747C12.3155 31.9347 12.1855 30.2397 11.5005 28.5747C9.87547 29.3547 8.64547 30.5397 8.06047 32.0797C7.64047 33.1997 7.59547 34.3997 7.85547 35.6097C7.37547 33.8947 7.04047 32.1197 6.93547 30.3397C8.67547 30.0747 10.1555 29.3197 11.1605 28.0547C12.2005 26.7647 12.5805 25.1097 12.4305 23.3147C10.6455 23.5647 9.11047 24.3247 8.08547 25.6147C7.40047 26.4747 7.00547 27.4947 6.86047 28.6097C6.84547 27.5697 7.27047 23.8797 7.25547 23.9397C9.05547 24.0797 10.7055 23.6647 11.9905 22.6247C13.2655 21.5847 14.0105 20.0547 14.2305 18.2647C12.4405 18.1247 10.6755 18.6297 9.50547 19.5797C8.33547 20.5297 7.85047 21.3047 7.51547 22.7047C7.85047 21.1547 8.22047 19.9697 8.82047 18.5147C10.6205 18.6547 12.2555 18.2397 13.5305 17.1997C14.8155 16.1597 15.5655 14.6297 15.7855 12.8397C14.0305 12.7047 12.4055 13.0997 11.1305 14.0997C11.6555 13.2947 12.2305 12.5147 12.8405 11.7697C13.2955 11.9997 13.7655 12.1947 14.2605 12.3147C15.4905 12.6147 16.7305 12.5097 17.8705 12.0797C19.4105 11.4997 20.5955 10.2797 21.3805 8.65473C19.7155 7.95473 18.0155 7.82473 16.4805 8.40473C16.2205 8.50473 15.9555 8.61973 15.7205 8.75473C16.4505 8.10974 17.2105 7.50474 18.0155 6.94474C19.7705 7.20974 21.4355 6.92474 22.7855 5.99474C24.1455 5.05974 24.9905 3.58974 25.3755 1.82474C23.5905 1.54474 21.9105 1.82974 20.5455 2.76474C19.2905 3.63474 18.4705 4.96474 18.0605 6.56474C17.7355 6.77974 17.4305 7.00474 17.1255 7.23474C17.6405 6.58974 18.0055 5.86474 18.2055 5.07474C18.6205 3.47474 18.3105 1.80474 17.4155 0.229736C15.8955 1.18974 14.8105 2.50474 14.4055 4.09974C14.0055 5.67974 14.2955 7.32974 15.1605 8.88474C14.5605 9.43474 13.9905 10.0147 13.4505 10.6147C13.7855 9.93474 13.9905 9.20973 14.0355 8.45473C14.1705 6.80973 13.5505 5.21974 12.4105 3.82974C11.0805 5.04474 10.2455 6.52974 10.1305 8.17474C10.0105 9.79474 10.6005 11.3697 11.7255 12.7447C11.2255 13.4147 10.7755 14.1047 10.3505 14.8147C10.6005 13.9197 10.6255 13.0097 10.4505 12.1147C10.1155 10.4997 9.10547 9.13474 7.61047 8.10473C6.66047 9.63474 6.26547 11.2897 6.60047 12.9047C6.91047 14.4447 7.86047 15.7547 9.22047 16.7647C8.91047 17.6047 8.54547 18.4147 8.22547 19.2547C8.39047 18.1347 8.25547 17.0397 7.81547 16.0297C7.15547 14.5197 5.89047 13.3947 4.22047 12.6947C3.60547 14.3897 3.56547 16.0897 4.22047 17.6047C4.86547 19.0797 6.09547 20.1847 7.70047 20.8897C7.45547 21.6947 7.25047 22.5147 7.09047 23.3497C7.00047 22.7047 6.79547 22.0847 6.50047 21.5047C5.74047 20.0447 4.38047 19.0097 2.66547 18.4247C2.18047 20.1597 2.25547 21.8597 3.01547 23.3197C3.75047 24.7347 5.03547 25.7497 6.67547 26.3447C6.61547 27.0447 6.57047 27.7547 6.57047 28.4647C6.30547 27.6447 5.88547 26.9097 5.29547 26.2847C4.17047 25.0797 2.59047 24.4497 0.790469 24.3447C0.775469 26.1497 1.30047 27.7647 2.42547 28.9697C3.50047 30.1147 4.98547 30.7447 6.68547 30.8897C6.77547 31.9047 6.92047 32.9247 7.14047 33.9447C6.70047 33.0497 6.07047 32.2897 5.28047 31.7147C3.93547 30.7547 2.26547 30.4397 0.480469 30.6847C0.815469 32.4597 1.65047 33.9397 2.98547 34.9047C4.28547 35.8397 5.91047 36.1647 7.63547 35.9547C7.65047 35.9847 7.65047 36.0147 7.66547 36.0447C7.88547 36.8347 8.16047 37.6047 8.45547 38.3597C8.04047 37.9097 7.56547 37.5247 7.03547 37.2197C5.60547 36.4097 3.90547 36.2797 2.15047 36.7147C2.68047 38.4397 3.65547 39.8247 5.10547 40.6347C6.48047 41.4097 8.09047 41.5647 9.77547 41.1897C10.1405 41.8897 10.5505 42.5747 10.9855 43.2347C10.4455 42.7947 9.84547 42.4547 9.18547 42.2297C7.62047 41.6997 5.92547 41.8897 4.28047 42.6447C5.13047 44.2397 6.36047 45.4197 7.91047 45.9447C9.44547 46.4647 11.0955 46.2947 12.7055 45.5697C13.1755 46.1297 13.6555 46.6647 14.1655 47.1847C13.5955 46.9047 12.9955 46.7147 12.3655 46.6297C10.7305 46.4097 9.10547 46.9147 7.64047 47.9697C8.76547 49.3797 10.1955 50.2997 11.8355 50.5197C13.4155 50.7347 14.9955 50.2647 16.4305 49.2697C17.1905 49.8847 17.9805 50.4547 18.8005 50.9797C18.0555 50.7497 17.3055 50.6597 16.5305 50.7247C14.8905 50.8697 13.4155 51.7197 12.2305 53.0697C13.6355 54.1947 15.2305 54.7797 16.8805 54.6347C18.4955 54.4947 19.9555 53.6597 21.1405 52.3347C21.9305 52.7397 22.7355 53.0997 23.5705 53.4247C22.7955 53.3897 22.0505 53.4947 21.3205 53.7547C19.7655 54.3147 18.5705 55.5147 17.7505 57.1247C19.4005 57.8497 21.0955 58.0047 22.6505 57.4497C24.0555 56.9447 25.1805 55.9097 25.9855 54.5147C26.8905 54.4947 29.7155 54.5397 30.5805 54.6797Z" fill="#CFD9E8"></path><path fill-rule="evenodd" clip-rule="evenodd" d="M69.9896 54.505C70.7946 55.895 71.9196 56.93 73.3246 57.44C74.8746 58 76.5746 57.845 78.2246 57.115C77.4046 55.505 76.2046 54.305 74.6546 53.745C73.9246 53.485 73.1796 53.38 72.4046 53.415C73.2346 53.09 74.0396 52.73 74.8346 52.325C76.0196 53.65 77.4796 54.48 79.0946 54.625C80.7446 54.77 82.3396 54.185 83.7446 53.06C82.5596 51.71 81.0846 50.855 79.4446 50.715C78.6696 50.65 77.9196 50.74 77.1746 50.97C77.9946 50.445 78.7846 49.87 79.5446 49.26C80.9796 50.255 82.5596 50.73 84.1396 50.51C85.7796 50.29 87.2096 49.365 88.3346 47.96C86.8696 46.905 85.2496 46.4 83.6096 46.62C82.9796 46.705 82.3796 46.895 81.8096 47.175C82.3196 46.66 82.7996 46.12 83.2696 45.56C84.8796 46.28 86.5296 46.45 88.0646 45.935C89.6146 45.405 90.8446 44.23 91.6946 42.635C90.0496 41.88 88.3596 41.69 86.7896 42.22C86.1296 42.445 85.5346 42.785 84.9896 43.225C85.4296 42.565 85.8396 41.885 86.1996 41.18C87.8846 41.555 89.4946 41.405 90.8696 40.625C92.3146 39.815 93.2946 38.43 93.8246 36.705C92.0696 36.265 90.3696 36.4 88.9396 37.21C88.4096 37.515 87.9346 37.895 87.5196 38.35C87.8146 37.6 88.0896 36.825 88.3096 36.035C88.3246 36.005 88.3246 35.975 88.3396 35.945C90.0646 36.155 91.6896 35.83 92.9896 34.895C94.3196 33.935 95.1546 32.45 95.4946 30.675C93.7096 30.43 92.0396 30.745 90.6946 31.705C89.9046 32.28 89.2746 33.04 88.8346 33.935C89.0546 32.915 89.1996 31.895 89.2896 30.88C90.9846 30.735 92.4746 30.105 93.5496 28.96C94.6746 27.755 95.1996 26.14 95.1846 24.335C93.3846 24.44 91.8046 25.07 90.6796 26.275C90.0896 26.9 89.6696 27.64 89.4046 28.455C89.4046 27.745 89.3596 27.04 89.2996 26.335C90.9446 25.74 92.2246 24.725 92.9596 23.31C93.7196 21.85 93.7946 20.15 93.3096 18.415C91.5996 19 90.2346 20.035 89.4746 21.495C89.1796 22.075 88.9746 22.695 88.8846 23.34C88.7246 22.51 88.5196 21.69 88.2746 20.88C89.8846 20.175 91.1096 19.07 91.7546 17.595C92.4096 16.085 92.3696 14.385 91.7546 12.685C90.0846 13.385 88.8146 14.51 88.1596 16.02C87.7196 17.03 87.5846 18.125 87.7446 19.245C87.4246 18.405 87.0596 17.595 86.7496 16.755C88.1096 15.74 89.0596 14.43 89.3696 12.895C89.7046 11.28 89.3096 9.62497 88.3596 8.09497C86.8646 9.12497 85.8546 10.49 85.5196 12.105C85.3446 13 85.3696 13.91 85.6196 14.805C85.1996 14.095 84.7446 13.405 84.2446 12.735C85.3696 11.355 85.9596 9.77997 85.8396 8.16497C85.7246 6.51497 84.8896 5.03497 83.5596 3.81997C82.4196 5.20997 81.7996 6.79997 81.9346 8.44497C81.9746 9.19997 82.1846 9.92497 82.5196 10.605C81.9796 10.005 81.4096 9.42497 80.8096 8.87497C81.6746 7.31497 81.9646 5.66497 81.5646 4.08997C81.1596 2.49497 80.0746 1.17997 78.5546 0.219971C77.6596 1.79497 77.3546 3.46497 77.7646 5.06497C77.9696 5.85497 78.3346 6.57997 78.8446 7.22497C78.5396 6.99497 78.2346 6.77497 77.9096 6.55497C77.4996 4.95497 76.6796 3.62997 75.4246 2.75497C74.0646 1.81997 72.3796 1.53497 70.5946 1.81497C70.9746 3.57997 71.8246 5.04997 73.1846 5.98497C74.5296 6.91497 76.1946 7.19997 77.9546 6.93497C78.7596 7.49997 79.5196 8.10497 80.2496 8.74497C80.0146 8.60997 79.7546 8.48997 79.4896 8.39497C77.9546 7.81497 76.2546 7.94497 74.5896 8.64497C75.3796 10.27 76.5646 11.485 78.0996 12.07C79.2446 12.5 80.4796 12.605 81.7096 12.305C82.2046 12.18 82.6746 11.99 83.1296 11.76C83.7446 12.505 84.3146 13.285 84.8396 14.09C83.5646 13.09 81.9446 12.695 80.1846 12.83C80.4046 14.62 81.1546 16.15 82.4396 17.19C83.7146 18.23 85.3496 18.64 87.1496 18.505C87.7496 19.96 88.1196 21.145 88.4546 22.695C88.1196 21.295 87.6346 20.52 86.4646 19.57C85.2946 18.62 83.5246 18.115 81.7396 18.255C81.9596 20.045 82.7046 21.575 83.9796 22.615C85.2646 23.655 86.9146 24.07 88.7146 23.93C88.6996 23.865 89.1296 27.56 89.1096 28.6C88.9646 27.485 88.5696 26.465 87.8846 25.605C86.8596 24.315 85.3246 23.555 83.5396 23.305C83.3896 25.1 83.7746 26.755 84.8096 28.045C85.8196 29.31 87.2996 30.065 89.0346 30.33C88.9296 32.11 88.5946 33.885 88.1146 35.6C88.3746 34.39 88.3346 33.19 87.9096 32.07C87.3196 30.53 86.0946 29.345 84.4696 28.565C83.7846 30.23 83.6546 31.925 84.2396 33.465C84.7946 34.91 85.8196 36.225 87.3546 36.855C87.4596 36.9 87.5696 36.94 87.6796 36.975C87.3996 37.83 87.0646 38.66 86.6796 39.465C86.5046 39.76 86.3596 40.075 86.2296 40.41C86.0096 40.835 85.7746 41.255 85.5396 41.665C86.0096 40.69 86.2296 39.655 86.1546 38.595C86.0196 36.95 85.1896 35.47 83.8596 34.26C82.7146 35.66 82.1196 37.25 82.2346 38.895C82.3496 40.34 83.0096 41.66 84.0746 42.78C84.3846 43.11 84.3646 43.1 84.5296 43.26C83.6246 44.58 82.6146 45.805 81.4996 46.925C82.1446 46.12 82.5846 45.205 82.7596 44.205C83.0546 42.58 82.6146 40.94 81.6196 39.435C80.1596 40.51 79.1946 41.9 78.8946 43.525C78.6196 45.145 79.0596 46.78 80.0496 48.28C79.0096 49.17 77.9146 49.98 76.7746 50.695C77.2396 50.23 77.6346 49.69 77.9296 49.085C78.6446 47.6 78.6746 45.9 78.1196 44.18C76.4246 44.82 75.1046 45.895 74.3896 47.38C73.7046 48.82 73.6596 50.465 74.1696 52.13C72.9996 52.69 71.7846 53.165 70.5296 53.55C71.1596 53.21 71.7246 52.77 72.1796 52.225C73.2596 50.97 73.7146 49.335 73.6296 47.53C71.8296 47.715 70.2746 48.415 69.2096 49.67C68.1996 50.845 67.7296 52.36 67.7596 54.03C67.5596 54.055 65.5847 54.08 65.3897 54.11C65.4047 54.38 65.2897 54.54 65.3897 54.67C66.2846 54.54 69.1096 54.495 69.9896 54.505Z" fill="#CFD9E8"></path><path d="M27.7788 26.14C27.0228 26.14 26.2901 26.0327 25.5808 25.818C24.8808 25.6033 24.3255 25.3187 23.9148 24.964L24.5448 23.55C24.9461 23.8673 25.4361 24.1287 26.0148 24.334C26.6028 24.53 27.1908 24.628 27.7788 24.628C28.5068 24.628 29.0481 24.5113 29.4028 24.278C29.7668 24.0447 29.9488 23.7367 29.9488 23.354C29.9488 23.074 29.8461 22.8453 29.6408 22.668C29.4448 22.4813 29.1928 22.3367 28.8848 22.234C28.5768 22.1313 28.1568 22.0147 27.6248 21.884C26.8781 21.7067 26.2715 21.5293 25.8048 21.352C25.3475 21.1747 24.9508 20.8993 24.6148 20.526C24.2881 20.1433 24.1248 19.63 24.1248 18.986C24.1248 18.4447 24.2695 17.9547 24.5588 17.516C24.8575 17.068 25.3008 16.7133 25.8888 16.452C26.4861 16.1907 27.2141 16.06 28.0728 16.06C28.6701 16.06 29.2581 16.1347 29.8368 16.284C30.4155 16.4333 30.9148 16.648 31.3348 16.928L30.7608 18.342C30.3315 18.09 29.8835 17.8987 29.4168 17.768C28.9501 17.6373 28.4975 17.572 28.0588 17.572C27.3401 17.572 26.8035 17.6933 26.4488 17.936C26.1035 18.1787 25.9308 18.5007 25.9308 18.902C25.9308 19.182 26.0288 19.4107 26.2248 19.588C26.4301 19.7653 26.6868 19.9053 26.9948 20.008C27.3028 20.1107 27.7228 20.2273 28.2548 20.358C28.9828 20.526 29.5801 20.7033 30.0468 20.89C30.5135 21.0673 30.9101 21.3427 31.2368 21.716C31.5728 22.0893 31.7408 22.5933 31.7408 23.228C31.7408 23.7693 31.5915 24.2593 31.2928 24.698C31.0035 25.1367 30.5601 25.4867 29.9628 25.748C29.3655 26.0093 28.6375 26.14 27.7788 26.14ZM37.5775 16.2C38.4268 16.2 39.1642 16.34 39.7895 16.62C40.4242 16.9 40.9095 17.3013 41.2455 17.824C41.5815 18.3467 41.7495 18.9673 41.7495 19.686C41.7495 20.3953 41.5815 21.016 41.2455 21.548C40.9095 22.0707 40.4242 22.472 39.7895 22.752C39.1642 23.032 38.4268 23.172 37.5775 23.172H35.3655V26H33.5455V16.2H37.5775ZM37.4935 21.632C38.2868 21.632 38.8888 21.464 39.2995 21.128C39.7102 20.792 39.9155 20.3113 39.9155 19.686C39.9155 19.0607 39.7102 18.58 39.2995 18.244C38.8888 17.908 38.2868 17.74 37.4935 17.74H35.3655V21.632H37.4935ZM50.917 24.474V26H43.567V16.2H50.721V17.726H45.387V20.274H50.119V21.772H45.387V24.474H50.917ZM60.2959 24.474V26H52.9459V16.2H60.0999V17.726H54.7659V20.274H59.4979V21.772H54.7659V24.474H60.2959ZM62.3248 16.2H66.6088C67.6541 16.2 68.5828 16.4053 69.3948 16.816C70.2068 17.2173 70.8368 17.7913 71.2848 18.538C71.7328 19.2753 71.9568 20.1293 71.9568 21.1C71.9568 22.0707 71.7328 22.9293 71.2848 23.676C70.8368 24.4133 70.2068 24.9873 69.3948 25.398C68.5828 25.7993 67.6541 26 66.6088 26H62.3248V16.2ZM66.5248 24.46C67.2435 24.46 67.8735 24.3247 68.4148 24.054C68.9655 23.774 69.3855 23.382 69.6748 22.878C69.9735 22.3647 70.1228 21.772 70.1228 21.1C70.1228 20.428 69.9735 19.84 69.6748 19.336C69.3855 18.8227 68.9655 18.4307 68.4148 18.16C67.8735 17.88 67.2435 17.74 66.5248 17.74H64.1448V24.46H66.5248Z" fill="#CFD9E8"></path><path d="M34.4854 32.6L31.6774 41H30.4174L28.1254 34.292L25.8334 41H24.5494L21.7414 32.6H22.9774L25.2454 39.428L27.6094 32.6H28.7134L31.0294 39.464L33.3454 32.6H34.4854ZM35.9534 32.6H37.1534V41H35.9534V32.6ZM46.8922 32.6V41H45.9082L40.8682 34.736V41H39.6682V32.6H40.6522L45.6922 38.864V32.6H46.8922ZM56.6305 32.6V41H55.6465L50.6065 34.736V41H49.4065V32.6H50.3905L55.4305 38.864V32.6H56.6305ZM65.2408 39.956V41H59.1448V32.6H65.0728V33.644H60.3448V36.224H64.5568V37.244H60.3448V39.956H65.2408ZM72.7998 41L70.9878 38.42C70.7638 38.436 70.5878 38.444 70.4598 38.444H68.3838V41H67.1838V32.6H70.4598C71.5478 32.6 72.4038 32.86 73.0278 33.38C73.6518 33.9 73.9638 34.616 73.9638 35.528C73.9638 36.176 73.8038 36.728 73.4838 37.184C73.1638 37.64 72.7078 37.972 72.1158 38.18L74.1078 41H72.7998ZM70.4238 37.424C71.1838 37.424 71.7638 37.26 72.1638 36.932C72.5638 36.604 72.7638 36.136 72.7638 35.528C72.7638 34.92 72.5638 34.456 72.1638 34.136C71.7638 33.808 71.1838 33.644 70.4238 33.644H68.3838V37.424H70.4238Z" fill="#CFD9E8"></path><path d="M42.8866 54.944V56H38.6546V55.16L40.8146 53.12C41.044 52.9013 41.1986 52.7147 41.2786 52.56C41.3586 52.4 41.3986 52.2427 41.3986 52.088C41.3986 51.864 41.3213 51.6933 41.1666 51.576C41.0173 51.4533 40.796 51.392 40.5026 51.392C40.2573 51.392 40.036 51.44 39.8386 51.536C39.6413 51.6267 39.476 51.7653 39.3426 51.952L38.3986 51.344C38.6173 51.0187 38.9186 50.7653 39.3026 50.584C39.6866 50.3973 40.1266 50.304 40.6226 50.304C41.0386 50.304 41.4013 50.3733 41.7106 50.512C42.0253 50.6453 42.268 50.8373 42.4386 51.088C42.6146 51.3333 42.7026 51.624 42.7026 51.96C42.7026 52.264 42.6386 52.5493 42.5106 52.816C42.3826 53.0827 42.1346 53.3867 41.7666 53.728L40.4786 54.944H42.8866ZM45.8058 56.096C45.3418 56.096 44.9284 55.9813 44.5658 55.752C44.2031 55.5227 43.9178 55.192 43.7098 54.76C43.5071 54.3227 43.4058 53.8027 43.4058 53.2C43.4058 52.5973 43.5071 52.08 43.7098 51.648C43.9178 51.2107 44.2031 50.8773 44.5658 50.648C44.9284 50.4187 45.3418 50.304 45.8058 50.304C46.2698 50.304 46.6831 50.4187 47.0458 50.648C47.4084 50.8773 47.6911 51.2107 47.8938 51.648C48.1018 52.08 48.2058 52.5973 48.2058 53.2C48.2058 53.8027 48.1018 54.3227 47.8938 54.76C47.6911 55.192 47.4084 55.5227 47.0458 55.752C46.6831 55.9813 46.2698 56.096 45.8058 56.096ZM45.8058 55C46.1471 55 46.4138 54.8533 46.6058 54.56C46.8031 54.2667 46.9018 53.8133 46.9018 53.2C46.9018 52.5867 46.8031 52.1333 46.6058 51.84C46.4138 51.5467 46.1471 51.4 45.8058 51.4C45.4698 51.4 45.2031 51.5467 45.0058 51.84C44.8138 52.1333 44.7178 52.5867 44.7178 53.2C44.7178 53.8133 44.8138 54.2667 45.0058 54.56C45.2031 54.8533 45.4698 55 45.8058 55ZM52.9726 54.944V56H48.7406V55.16L50.9006 53.12C51.1299 52.9013 51.2846 52.7147 51.3646 52.56C51.4446 52.4 51.4846 52.2427 51.4846 52.088C51.4846 51.864 51.4072 51.6933 51.2526 51.576C51.1032 51.4533 50.8819 51.392 50.5886 51.392C50.3432 51.392 50.1219 51.44 49.9246 51.536C49.7272 51.6267 49.5619 51.7653 49.4286 51.952L48.4846 51.344C48.7032 51.0187 49.0046 50.7653 49.3886 50.584C49.7726 50.3973 50.2126 50.304 50.7086 50.304C51.1246 50.304 51.4872 50.3733 51.7966 50.512C52.1112 50.6453 52.3539 50.8373 52.5246 51.088C52.7006 51.3333 52.7886 51.624 52.7886 51.96C52.7886 52.264 52.7246 52.5493 52.5966 52.816C52.4686 53.0827 52.2206 53.3867 51.8526 53.728L50.5646 54.944H52.9726ZM55.8917 56.096C55.4277 56.096 55.0144 55.9813 54.6517 55.752C54.289 55.5227 54.0037 55.192 53.7957 54.76C53.593 54.3227 53.4917 53.8027 53.4917 53.2C53.4917 52.5973 53.593 52.08 53.7957 51.648C54.0037 51.2107 54.289 50.8773 54.6517 50.648C55.0144 50.4187 55.4277 50.304 55.8917 50.304C56.3557 50.304 56.769 50.4187 57.1317 50.648C57.4944 50.8773 57.777 51.2107 57.9797 51.648C58.1877 52.08 58.2917 52.5973 58.2917 53.2C58.2917 53.8027 58.1877 54.3227 57.9797 54.76C57.777 55.192 57.4944 55.5227 57.1317 55.752C56.769 55.9813 56.3557 56.096 55.8917 56.096ZM55.8917 55C56.233 55 56.4997 54.8533 56.6917 54.56C56.889 54.2667 56.9877 53.8133 56.9877 53.2C56.9877 52.5867 56.889 52.1333 56.6917 51.84C56.4997 51.5467 56.233 51.4 55.8917 51.4C55.5557 51.4 55.289 51.5467 55.0917 51.84C54.8997 52.1333 54.8037 52.5867 54.8037 53.2C54.8037 53.8133 54.8997 54.2667 55.0917 54.56C55.289 54.8533 55.5557 55 55.8917 55Z" fill="#CFD9E8"></path></g><defs><clipPath id="clip0"><rect width="96" height="59" fill="white"></rect></clipPath></defs></svg>